<svg id="visual" viewBox="0 100 960 200" width="960" height="100" xmlns="http://www.w3.org/2000/svg" xmlns:xlink="http://www.w3.org/1999/xlink" version="1.1"><rect x="0" y="0" width="960" height="300" fill="#002233"></rect><path d="M0 201L17.8 208.7C35.7 216.3 71.3 231.7 106.8 236.8C142.3 242 177.7 237 213.2 225C248.7 213 284.3 194 320 185.2C355.7 176.3 391.3 177.7 426.8 185.2C462.3 192.7 497.7 206.3 533.2 207.7C568.7 209 604.3 198 640 201C675.7 204 711.3 221 746.8 230.2C782.3 239.3 817.7 240.7 853.2 231C888.7 221.3 924.3 200.7 942.2 190.3L960 180L960 301L942.2 301C924.3 301 888.7 301 853.2 301C817.7 301 782.3 301 746.8 301C711.3 301 675.7 301 640 301C604.3 301 568.7 301 533.2 301C497.7 301 462.3 301 426.8 301C391.3 301 355.7 301 320 301C284.3 301 248.7 301 213.2 301C177.7 301 142.3 301 106.8 301C71.3 301 35.7 301 17.8 301L0 301Z" fill="#0066FF" stroke-linecap="round" stroke-linejoin="miter"></path></svg>