<svg id="visual" viewBox="0 100 960 200" width="960" height="100" xmlns="http://www.w3.org/2000/svg" xmlns:xlink="http://www.w3.org/1999/xlink" version="1.1"><rect x="0" y="0" width="960" height="300" fill="#0066FF"></rect><path d="M0 197L14.5 195.2C29 193.3 58 189.7 87.2 188.8C116.3 188 145.7 190 174.8 194.3C204 198.7 233 205.3 262 201.7C291 198 320 184 349 188C378 192 407 214 436.2 215C465.3 216 494.7 196 523.8 193.7C553 191.3 582 206.7 611 214C640 221.3 669 220.7 698 214.2C727 207.7 756 195.3 785.2 192.5C814.3 189.7 843.7 196.3 872.8 205.8C902 215.3 931 227.7 945.5 233.8L960 240L960 301L945.5 301C931 301 902 301 872.8 301C843.7 301 814.3 301 785.2 301C756 301 727 301 698 301C669 301 640 301 611 301C582 301 553 301 523.8 301C494.7 301 465.3 301 436.2 301C407 301 378 301 349 301C320 301 291 301 262 301C233 301 204 301 174.8 301C145.7 301 116.3 301 87.2 301C58 301 29 301 14.5 301L0 301Z" fill="#000000" stroke-linecap="round" stroke-linejoin="miter"></path></svg>