<svg id="visual" viewBox="0 100 960 200" width="960" height="100" xmlns="http://www.w3.org/2000/svg" xmlns:xlink="http://www.w3.org/1999/xlink" version="1.1"><rect x="0" y="0" width="960" height="300" fill="#000000"></rect><path d="M0 99L14.5 106.3C29 113.7 58 128.3 87.2 135C116.3 141.7 145.7 140.3 174.8 133.5C204 126.7 233 114.3 262 115.8C291 117.3 320 132.7 349 135.8C378 139 407 130 436.2 122.7C465.3 115.3 494.7 109.7 523.8 106.5C553 103.3 582 102.7 611 109.8C640 117 669 132 698 139.5C727 147 756 147 785.2 146.7C814.3 146.3 843.7 145.7 872.8 140.5C902 135.3 931 125.7 945.5 120.8L960 116L960 0L945.5 0C931 0 902 0 872.8 0C843.7 0 814.3 0 785.2 0C756 0 727 0 698 0C669 0 640 0 611 0C582 0 553 0 523.8 0C494.7 0 465.3 0 436.2 0C407 0 378 0 349 0C320 0 291 0 262 0C233 0 204 0 174.8 0C145.7 0 116.3 0 87.2 0C58 0 29 0 14.5 0L0 0Z" fill="#4facf7"></path><path d="M0 94L14.5 92.7C29 91.3 58 88.7 87.2 84.8C116.3 81 145.7 76 174.8 74.2C204 72.3 233 73.7 262 72.7C291 71.7 320 68.3 349 72.2C378 76 407 87 436.2 92.5C465.3 98 494.7 98 523.8 99.5C553 101 582 104 611 104.8C640 105.7 669 104.3 698 98.2C727 92 756 81 785.2 80.5C814.3 80 843.7 90 872.8 90.2C902 90.3 931 80.7 945.5 75.8L960 71L960 0L945.5 0C931 0 902 0 872.8 0C843.7 0 814.3 0 785.2 0C756 0 727 0 698 0C669 0 640 0 611 0C582 0 553 0 523.8 0C494.7 0 465.3 0 436.2 0C407 0 378 0 349 0C320 0 291 0 262 0C233 0 204 0 174.8 0C145.7 0 116.3 0 87.2 0C58 0 29 0 14.5 0L0 0Z" fill="#008cff"></path><path d="M0 41L14.5 42.7C29 44.3 58 47.7 87.2 46.2C116.3 44.7 145.7 38.3 174.8 37.3C204 36.3 233 40.7 262 39.8C291 39 320 33 349 36C378 39 407 51 436.2 52.5C465.3 54 494.7 45 523.8 45.5C553 46 582 56 611 58.5C640 61 669 56 698 55C727 54 756 57 785.2 55.5C814.3 54 843.7 48 872.8 41.8C902 35.7 931 29.3 945.5 26.2L960 23L960 0L945.5 0C931 0 902 0 872.8 0C843.7 0 814.3 0 785.2 0C756 0 727 0 698 0C669 0 640 0 611 0C582 0 553 0 523.8 0C494.7 0 465.3 0 436.2 0C407 0 378 0 349 0C320 0 291 0 262 0C233 0 204 0 174.8 0C145.7 0 116.3 0 87.2 0C58 0 29 0 14.5 0L0 0Z" fill="#0066ff"></path></svg>